# xmcd
#
# Track frame offsets:
#	150
#	12680
#	28474
#	47144
#	64543
#	80285
#
# Disc length: 1346 seconds
#
# Revision: 1
# Processed by: cddbd v1.5.2PL0 Copyright (c) Steve Scherf et al.
# Submitted via: audiograbber 1.83.01
#
DISCID=4b054006
DTITLE=Various Artist - CDXMAS 1038
DYEAR=2017
DGENRE=Country Christmas
TTITLE0=Tony Jackson - A Soldier's Christmas Eve
TTITLE1=John Oates - Santa Be Good To Me
TTITLE2=Craig Gerdes - Christmas Eve at Our House
TTITLE3=Anndy Ross - Make Christmas Great Again
TTITLE4=Abi Ann - Put A Bow On It
TTITLE5=Teea Goans - They Saw A King
EXTD=
EXTT0=
EXTT1=
EXTT2=
EXTT3=
EXTT4=
EXTT5=
PLAYORDER=
